# xmcd
#
# Track frame offsets:
#	150
#	16252
#	30525
#	51912
#	69802
#	84772
#	98867
#	120825
#	133710
#	152642
#
# Disc length: 2266 seconds
#
# Revision: 2
# Processed by: cddbd v1.5.1PL0 Copyright (c) Steve Scherf et al.
# Submitted via: MusicManager 7.2.0.0 
#
DISCID=6a08d80a
DTITLE=Various Artist - New Country Collection, Vol 4, Number 5
DYEAR=1997
DGENRE=
TTITLE0=Alison Krauss and Union Station - Find My Way Back To My Heart
TTITLE1=Jamie Warren - Fallen Angel
TTITLE2=Tanya Tucker - All I Have to Offer You Is Love
TTITLE3=Bryan Smith - Jack of All Trades
TTITLE4=Jimmy LaFave - Heart of a Woman
TTITLE5=Highway 101 - 24 Hours
TTITLE6=Kate Campbell - Galaxie 500
TTITLE7=Slaid Cleaves - No Angel Knows
TTITLE8=Bad Livers - Counting the Crossties
TTITLE9=The Backsliders - Throwin' Rocks at the Moon
EXTD=
EXTT0=Alison Krauss and Union Station
EXTT1=Jamie Warren
EXTT2=Tanya Tucker
EXTT3=Bryan Smith
EXTT4=Jimmy LaFave
EXTT5=Highway 101
EXTT6=Kate Campbell
EXTT7=Slaid Cleaves
EXTT8=Bad Livers
EXTT9=The Backsliders
PLAYORDER=
